<?xml version="1.0" encoding="utf-8"?>
<svg version="1.1" xmlns="http://www.w3.org/2000/svg" width="16px" height="16px" viewBox="-2 -2 34.916 34.916" xml:space="preserve"><path fill="#6E6E6E" d="M30.171,1.213c-0.018-0.252-0.216-0.451-0.468-0.468L17.859,0.002c-0.145-0.013-0.281,0.045-0.385,0.146L0.146,17.474c-0.195,0.195-0.195,0.513,0,0.707L12.732,30.77c0.094,0.095,0.221,0.146,0.354,0.146c0.133,0,0.26-0.053,0.354-0.146l17.328-17.329c0.104-0.103,0.154-0.241,0.146-0.386L30.171,1.213z M26.723,7.816c-0.968,0.967-2.656,0.967-3.623,0c-0.999-1-0.999-2.625,0-3.623c0.484-0.482,1.127-0.75,1.812-0.75c0.684,0,1.325,0.268,1.811,0.75C27.721,5.192,27.721,6.817,26.723,7.816z"/></svg>